<?xml version="1.0" encoding="UTF-8"?>
<svg width="54.137719px" height="44px" viewBox="0 0 54.137719 44" version="1.1" xmlns="http://www.w3.org/2000/svg" xmlns:xlink="http://www.w3.org/1999/xlink">
    <title>twitter</title>
    <g id="Page-1" stroke="none" stroke-width="1" fill="none" fill-rule="evenodd">
        <g id="twitter" fill="#000000">
            <path d="M54.0328927,5.23793421 C52.0378113,6.11712266 49.90747,6.71564709 47.6587765,6.98616662 C49.948048,5.60989856 51.7098063,3.43559791 52.5382724,0.845373501 C50.3944052,2.09652628 48.0172149,3.00952966 45.4878574,3.51675377 C43.4657239,1.3525976 40.5846911,0 37.3857977,0 C31.2585306,0 26.2877344,4.97079619 26.2877344,11.0913003 C26.2877344,11.9704888 26.3891792,12.8158623 26.5751614,13.6274208 C17.3504457,13.1878266 9.17061174,8.75806947 3.69597295,2.06271134 C2.73562865,3.68920996 2.19458961,5.5828466 2.19458961,7.64555795 C2.19458961,11.5004611 4.15585613,14.8920996 7.13157086,16.8837996 C5.31232708,16.8263142 3.59790962,16.3258531 2.10328927,15.497387 L2.10328927,15.6326468 C2.10328927,21.0092223 5.9243775,25.4998463 11.006763,26.5210575 C10.0734706,26.771288 9.09283738,26.9065478 8.08177067,26.9065478 C7.37165693,26.9065478 6.69535813,26.8389179 6.01905933,26.7104211 C7.43928681,31.1198893 11.5308946,34.3289271 16.4002459,34.4202275 C12.6129726,37.3959422 7.81125115,39.1678451 2.63756532,39.1678451 C1.75837688,39.1678451 0.879188441,39.1171227 0,39.0156778 C4.93698125,42.1604673 10.7531509,44 17.0427298,44 C37.4669536,44 48.6258838,27.09253 48.6258838,12.4506609 C48.6258838,11.9772518 48.6258838,11.5038426 48.5920689,11.0304334 C50.756225,9.4749462 52.6498617,7.51367968 54.137719,5.28189364 L54.0328927,5.23793421 Z" id="Path"></path>
        </g>
    </g>
</svg>